<svg xmlns="http://www.w3.org/2000/svg" viewBox="0 0 1600 900" fill="none">
  <defs>
    <linearGradient id="fade" x1="0.5" y1="0" x2="0.5" y2="1">
      <stop offset="0%" stop-color="#0c0e14"/>
      <stop offset="45%" stop-color="#09090b"/>
      <stop offset="100%" stop-color="#09090b"/>
    </linearGradient>
    <radialGradient id="glowL" cx="25%" cy="45%" r="40%">
      <stop offset="0%" stop-color="rgba(91, 141, 239, 0.2)"/>
      <stop offset="100%" stop-color="rgba(91, 141, 239, 0)"/>
    </radialGradient>
    <radialGradient id="glowR" cx="78%" cy="55%" r="35%">
      <stop offset="0%" stop-color="rgba(91, 141, 239, 0.1)"/>
      <stop offset="100%" stop-color="rgba(91, 141, 239, 0)"/>
    </radialGradient>
    <pattern id="grid" width="48" height="48" patternUnits="userSpaceOnUse">
      <path d="M 48 0 L 0 0 0 48" fill="none" stroke="rgba(255,255,255,0.04)" stroke-width="1"/>
    </pattern>
  </defs>
  <rect width="1600" height="900" fill="url(#fade)"/>
  <rect width="1600" height="900" fill="url(#glowL)"/>
  <rect width="1600" height="900" fill="url(#glowR)"/>
  <rect width="1600" height="900" fill="url(#grid)"/>
  <rect x="180" y="280" width="420" height="260" rx="12" fill="none" stroke="rgba(91, 141, 239, 0.14)" stroke-width="1"/>
  <rect x="220" y="320" width="140" height="12" rx="4" fill="rgba(91, 141, 239, 0.1)"/>
  <rect x="220" y="350" width="280" height="8" rx="3" fill="rgba(255,255,255,0.05)"/>
  <rect x="220" y="368" width="240" height="8" rx="3" fill="rgba(255,255,255,0.035)"/>
  <rect x="220" y="386" width="200" height="8" rx="3" fill="rgba(255,255,255,0.025)"/>
  <rect x="980" y="240" width="360" height="220" rx="12" fill="none" stroke="rgba(255,255,255,0.06)" stroke-width="1"/>
  <rect x="1020" y="280" width="120" height="10" rx="4" fill="rgba(255,255,255,0.04)"/>
  <rect x="1020" y="310" width="260" height="8" rx="3" fill="rgba(91, 141, 239, 0.06)"/>
  <rect x="1020" y="330" width="220" height="8" rx="3" fill="rgba(255,255,255,0.03)"/>
</svg>
